{
  "accessors": [
    {
      "bufferView": 3,
      "componentType": 5126,
      "count": 2499,
      "max": [
        85.48289489746094,
        154.5306396484375,
        70.94193267822266
      ],
      "min": [
        -99.84970092773438,
        -0.43720608949661255,
        -62.30340576171875
      ],
      "type": "VEC3"
    },
    {
      "bufferView": 3,
      "byteOffset": 29988,
      "componentType": 5126,
      "count": 2499,
      "max": [
        0.999981701374054,
        1.0,
        0.9999648928642273
      ],
      "min": [
        -0.9999648928642273,
        -1.0,
        -0.9999649524688721
      ],
      "type": "VEC3"
    },
    {
      "bufferView": 4,
      "componentType": 5126,
      "count": 2499,
      "max": [
        0.9997758269309998,
        0.9999411106109619,
        0.9999992847442627,
        1.0
      ],
      "min": [
        -0.9999978542327881,
        -0.9999502897262573,
        -1.0,
        1.0
      ],
      "type": "VEC4"
    },
    {
      "bufferView": 2,
      "componentType": 5126,
      "count": 2499,
      "max": [
        1.0,
        0.9701703190803528
      ],
      "min": [
        0.0,
        0.0
      ],
      "type": "VEC2"
    },
    {
      "bufferView": 1,
      "componentType": 5125,
      "count": 10800,
      "type": "SCALAR"
    },
    {
      "bufferView": 5,
      "componentType": 5126,
      "count": 20,
      "max": [
        1.0,
        0.0,
        0.0,
        0.0,
        0.0,
        1.0,
        0.0,
        0.0,
        0.0,
        0.0,
        1.0,
        0.0,
        38.32032775878906,
        0.0,
        17.23618507385254,
        1.0
      ],
      "min": [
        1.0,
        0.0,
        0.0,
        0.0,
        0.0,
        1.0,
        0.0,
        0.0,
        0.0,
        0.0,
        1.0,
        0.0,
        -45.76731872558594,
        -127.7561264038086,
        -29.756153106689453,
        1.0
      ],
      "type": "MAT4"
    },
    {
      "bufferView": 0,
      "componentType": 5123,
      "count": 2499,
      "type": "VEC4"
    },
    {
      "bufferView": 4,
      "byteOffset": 39984,
      "componentType": 5126,
      "count": 2499,
      "max": [
        0.797061026096344,
        0.5,
        0.28698185086250305,
        0.1192561686038971
      ],
      "min": [
        0.35287579894065857,
        0.170157790184021,
        0.0,
        0.0
      ],
      "type": "VEC4"
    },
    {
      "bufferView": 6,
      "componentType": 5126,
      "count": 111,
      "max": [
        5.0
      ],
      "min": [
        0.03333333507180214
      ],
      "type": "SCALAR"
    },
    {
      "bufferView": 7,
      "componentType": 5126,
      "count": 111,
      "max": [
        7.105427357601002e-15,
        56.6048698425293,
        0.0
      ],
      "min": [
        -7.105427357601002e-15,
        56.6048698425293,
        0.0
      ],
      "type": "VEC3"
    },
    {
      "bufferView": 6,
      "byteOffset": 444,
      "componentType": 5126,
      "count": 150,
      "max": [
        5.0
      ],
      "min": [
        0.03333333507180214
      ],
      "type": "SCALAR"
    },
    {
      "bufferView": 8,
      "componentType": 5126,
      "count": 150,
      "max": [
        0.0,
        0.0,
        0.0178375206887722,
        1.0
      ],
      "min": [
        0.0,
        0.0,
        0.0,
        0.9998409152030945
      ],
      "type": "VEC4"
    },
    {
      "bufferView": 6,
      "byteOffset": 1044,
      "componentType": 5126,
      "count": 96,
      "max": [
        5.0
      ],
      "min": [
        0.03333333507180214
      ],
      "type": "SCALAR"
    },
    {
      "bufferView": 7,
      "byteOffset": 1332,
      "componentType": 5126,
      "count": 96,
      "max": [
        7.105427357601002e-15,
        15.707110404968262,
        0.0
      ],
      "min": [
        -7.105427357601002e-15,
        15.707110404968262,
        0.0
      ],
      "type": "VEC3"
    },
    {
      "bufferView": 6,
      "byteOffset": 1428,
      "componentType": 5126,
      "count": 65,
      "max": [
        5.0
      ],
      "min": [
        0.03333333507180214
      ],
      "type": "SCALAR"
    },
    {
      "bufferView": 8,
      "byteOffset": 2400,
      "componentType": 5126,
      "count": 65,
      "max": [
        0.0,
        0.0,
        1.3877787807814457e-17,
        1.0
      ],
      "min": [
        0.0,
        0.0,
        -6.938893903907228e-18,
        1.0
      ],
      "type": "VEC4"
    },
    {
      "bufferView": 6,
      "byteOffset": 1688,
      "componentType": 5126,
      "count": 150,
      "max": [
        5.0
      ],
      "min": [
        0.03333333507180214
      ],
      "type": "SCALAR"
    },
    {
      "bufferView": 8,
      "byteOffset": 3440,
      "componentType": 5126,
      "count": 150,
      "max": [
        0.0,
        0.0,
        0.04361938685178757,
        1.0
      ],
      "min": [
        0.0,
        0.0,
        0.0,
        0.9990482330322266
      ],
      "type": "VEC4"
    },
    {
      "bufferView": 6,
      "byteOffset": 2288,
      "componentType": 5126,
      "count": 122,
      "max": [
        5.0
      ],
      "min": [
        0.03333333507180214
      ],
      "type": "SCALAR"
    },
    {
      "bufferView": 7,
      "byteOffset": 2484,
      "componentType": 5126,
      "count": 122,
      "max": [
        1.7763568394002505e-15,
        56.6048698425293,
        0.0
      ],
      "min": [
        -8.881784197001252e-16,
        56.6048698425293,
        0.0
      ],
      "type": "VEC3"
    },
    {
      "bufferView": 6,
      "byteOffset": 2776,
      "componentType": 5126,
      "count": 150,
      "max": [
        5.0
      ],
      "min": [
        0.03333333507180214
      ],
      "type": "SCALAR"
    },
    {
      "bufferView": 8,
      "byteOffset": 5840,
      "componentType": 5126,
      "count": 150,
      "max": [
        0.0,
        0.0,
        0.02650037594139576,
        1.0
      ],
      "min": [
        0.0,
        0.0,
        0.0,
        0.9996488094329834
      ],
      "type": "VEC4"
    },
    {
      "bufferView": 6,
      "byteOffset": 3376,
      "componentType": 5126,
      "count": 150,
      "max": [
        5.0
      ],
      "min": [
        0.03333333507180214
      ],
      "type": "SCALAR"
    },
    {
      "bufferView": 8,
      "byteOffset": 8240,
      "componentType": 5126,
      "count": 150,
      "max": [
        0.0,
        0.0,
        0.020596252754330635,
        1.0
      ],
      "min": [
        0.0,
        0.0,
        0.0,
        0.9997878670692444
      ],
      "type": "VEC4"
    },
    {
      "bufferView": 6,
      "byteOffset": 3976,
      "componentType": 5126,
      "count": 137,
      "max": [
        5.0
      ],
      "min": [
        0.03333333507180214
      ],
      "type": "SCALAR"
    },
    {
      "bufferView": 8,
      "byteOffset": 10640,
      "componentType": 5126,
      "count": 137,
      "max": [
        0.0,
        0.0,
        0.0,
        1.0
      ],
      "min": [
        0.0,
        0.0,
        -0.03096936084330082,
        0.9995203614234924
      ],
      "type": "VEC4"
    }
  ],
  "animations": [
    {
      "channels": [
        {
          "sampler": 0,
          "target": {
            "node": 11,
            "path": "translation"
          }
        },
        {
          "sampler": 1,
          "target": {
            "node": 11,
            "path": "rotation"
          }
        },
        {
          "sampler": 2,
          "target": {
            "node": 10,
            "path": "translation"
          }
        },
        {
          "sampler": 3,
          "target": {
            "node": 10,
            "path": "rotation"
          }
        },
        {
          "sampler": 4,
          "target": {
            "node": 9,
            "path": "rotation"
          }
        },
        {
          "sampler": 5,
          "target": {
            "node": 17,
            "path": "translation"
          }
        },
        {
          "sampler": 6,
          "target": {
            "node": 17,
            "path": "rotation"
          }
        },
        {
          "sampler": 7,
          "target": {
            "node": 15,
            "path": "rotation"
          }
        },
        {
          "sampler": 8,
          "target": {
            "node": 21,
            "path": "rotation"
          }
        }
      ],
      "name": "Take 001",
      "samplers": [
        {
          "input": 8,
          "interpolation": "LINEAR",
          "output": 9
        },
        {
          "input": 10,
          "interpolation": "LINEAR",
          "output": 11
        },
        {
          "input": 12,
          "interpolation": "LINEAR",
          "output": 13
        },
        {
          "input": 14,
          "interpolation": "LINEAR",
          "output": 15
        },
        {
          "input": 16,
          "interpolation": "LINEAR",
          "output": 17
        },
        {
          "input": 18,
          "interpolation": "LINEAR",
          "output": 19
        },
        {
          "input": 20,
          "interpolation": "LINEAR",
          "output": 21
        },
        {
          "input": 22,
          "interpolation": "LINEAR",
          "output": 23
        },
        {
          "input": 24,
          "interpolation": "LINEAR",
          "output": 25
        }
      ]
    }
  ],
  "asset": {
    "extras": {
      "author": "Glyus (https://sketchfab.com/Glyus)",
      "license": "CC-BY-SA-4.0 (http://creativecommons.org/licenses/by-sa/4.0/)",
      "source": "https://sketchfab.com/3d-models/checkpoint-5d8430087e394ffd863a371afd26138a",
      "title": "Checkpoint"
    },
    "generator": "Sketchfab-12.63.0",
    "version": "2.0"
  },
  "bufferViews": [
    {
      "buffer": 0,
      "byteLength": 19992,
      "byteStride": 8,
      "name": "shortBufferViews",
      "target": 34962
    },
    {
      "buffer": 0,
      "byteLength": 43200,
      "byteOffset": 19992,
      "name": "floatBufferViews",
      "target": 34963
    },
    {
      "buffer": 0,
      "byteLength": 19992,
      "byteOffset": 63192,
      "byteStride": 8,
      "name": "floatBufferViews",
      "target": 34962
    },
    {
      "buffer": 0,
      "byteLength": 59976,
      "byteOffset": 83184,
      "byteStride": 12,
      "name": "floatBufferViews",
      "target": 34962
    },
    {
      "buffer": 0,
      "byteLength": 79968,
      "byteOffset": 143160,
      "byteStride": 16,
      "name": "floatBufferViews",
      "target": 34962
    },
    {
      "buffer": 0,
      "byteLength": 1280,
      "byteOffset": 223128,
      "name": "floatBufferViews"
    },
    {
      "buffer": 0,
      "byteLength": 4524,
      "byteOffset": 224408,
      "name": "floatBufferViews"
    },
    {
      "buffer": 0,
      "byteLength": 3948,
      "byteOffset": 228932,
      "byteStride": 12,
      "name": "floatBufferViews"
    },
    {
      "buffer": 0,
      "byteLength": 12832,
      "byteOffset": 232880,
      "byteStride": 16,
      "name": "floatBufferViews"
    }
  ],
  "buffers": [
    {
      "byteLength": 245712,
      "uri": "scene.bin"
    }
  ],
  "images": [
    {
      "uri": "textures/Checkpoint_Texture_baseColor.png"
    },
    {
      "uri": "textures/Checkpoint_Texture_metallicRoughness.png"
    },
    {
      "uri": "textures/Checkpoint_Texture_emissive.png"
    },
    {
      "uri": "textures/Checkpoint_Texture_normal.png"
    }
  ],
  "materials": [
    {
      "doubleSided": true,
      "emissiveFactor": [
        1.0,
        1.0,
        1.0
      ],
      "emissiveTexture": {
        "index": 2
      },
      "name": "Checkpoint_Texture",
      "normalTexture": {
        "index": 3
      },
      "occlusionTexture": {
        "index": 1
      },
      "pbrMetallicRoughness": {
        "baseColorTexture": {
          "index": 0
        },
        "metallicRoughnessTexture": {
          "index": 1
        }
      }
    }
  ],
  "meshes": [
    {
      "name": "Mushroom_Checkpoint_Checkpoint_Texture_0",
      "primitives": [
        {
          "attributes": {
            "JOINTS_0": 6,
            "NORMAL": 1,
            "POSITION": 0,
            "TANGENT": 2,
            "TEXCOORD_0": 3,
            "TEXCOORD_1": 3,
            "TEXCOORD_2": 3,
            "TEXCOORD_3": 3,
            "TEXCOORD_4": 3,
            "TEXCOORD_5": 3,
            "WEIGHTS_0": 7
          },
          "indices": 4,
          "material": 0,
          "mode": 4
        }
      ]
    }
  ],
  "nodes": [
    {
      "children": [
        1
      ],
      "matrix": [
        0.013428548350930214,
        0.0,
        0.0,
        0.0,
        0.0,
        2.98173671329898e-18,
        -0.013428548350930214,
        0.0,
        0.0,
        0.013428548350930214,
        2.98173671329898e-18,
        0.0,
        0.0,
        0.0,
        0.0,
        1.0
      ],
      "name": "Sketchfab_model"
    },
    {
      "children": [
        2
      ],
      "matrix": [
        1.0,
        0.0,
        0.0,
        0.0,
        0.0,
        0.0,
        1.0,
        0.0,
        0.0,
        -1.0,
        0.0,
        0.0,
        0.0,
        0.0,
        0.0,
        1.0
      ],
      "name": "52a19ab577f34cc085eb9b79a47007af.fbx"
    },
    {
      "children": [
        3
      ],
      "name": "Object_2"
    },
    {
      "children": [
        4
      ],
      "name": "RootNode"
    },
    {
      "children": [
        5
      ],
      "name": "Checkpoint"
    },
    {
      "children": [
        6,
        7,
        27
      ],
      "name": "Object_5"
    },
    {
      "children": [
        8
      ],
      "name": "_rootJoint"
    },
    {
      "mesh": 0,
      "name": "Object_7",
      "skin": 0
    },
    {
      "children": [
        9,
        15,
        21
      ],
      "name": "Root_00"
    },
    {
      "children": [
        10
      ],
      "name": "Mushroom_1_1_01",
      "rotation": [
        0.0,
        0.0,
        0.03257988020777702,
        0.9994691610336304
      ],
      "translation": [
        -38.32032775878906,
        0.0,
        4.861865997314453
      ]
    },
    {
      "children": [
        11
      ],
      "name": "Mushroom_1_2_02",
      "translation": [
        0.0,
        15.707110404968262,
        0.0
      ]
    },
    {
      "children": [
        12
      ],
      "name": "Mushroom_1_3_03",
      "rotation": [
        0.0,
        0.0,
        0.012893108651041985,
        0.9999169707298279
      ],
      "translation": [
        -7.105427357601002e-15,
        56.6048698425293,
        0.0
      ]
    },
    {
      "children": [
        13
      ],
      "name": "Mushroom_1_4_04",
      "rotation": [
        0.0,
        0.0,
        6.938893903907228e-18,
        1.0
      ],
      "translation": [
        0.0,
        24.60832405090332,
        0.0
      ]
    },
    {
      "children": [
        14
      ],
      "name": "Mushroom_1_5_05",
      "rotation": [
        0.0,
        0.0,
        6.938893903907228e-18,
        1.0
      ],
      "translation": [
        7.105427357601002e-15,
        27.97210121154785,
        0.0
      ]
    },
    {
      "name": "Mushroom_1_6_06",
      "translation": [
        1.4210854715202004e-14,
        25.02387046813965,
        0.0
      ]
    },
    {
      "children": [
        16
      ],
      "name": "Mushroom_2_1_07",
      "rotation": [
        0.0,
        0.0,
        0.016935700550675392,
        0.9998565912246704
      ],
      "translation": [
        5.009416103363037,
        0.0,
        29.756153106689453
      ]
    },
    {
      "children": [
        17
      ],
      "name": "Mushroom_2_2_08",
      "translation": [
        8.881784197001252e-16,
        9.503573417663574,
        0.0
      ]
    },
    {
      "children": [
        18
      ],
      "name": "Mushroom_2_3_09",
      "rotation": [
        0.0,
        0.0,
        0.021790817379951477,
        0.9997626543045044
      ],
      "translation": [
        0.0,
        56.6048698425293,
        0.0
      ]
    },
    {
      "children": [
        19
      ],
      "name": "Mushroom_2_4_010",
      "translation": [
        0.0,
        8.976511001586914,
        0.0
      ]
    },
    {
      "children": [
        20
      ],
      "name": "Mushroom_2_5_011",
      "rotation": [
        0.0,
        -0.0,
        -6.938893903907228e-18,
        1.0
      ],
      "translation": [
        0.0,
        10.203534126281738,
        0.0
      ]
    },
    {
      "name": "Mushroom_2_6_012",
      "rotation": [
        0.0,
        0.0,
        6.938893903907228e-18,
        1.0
      ],
      "translation": [
        0.0,
        9.128091812133789,
        0.0
      ]
    },
    {
      "children": [
        22
      ],
      "name": "Mushroom_3_1_013",
      "rotation": [
        0.0,
        -0.0,
        -0.02506844885647297,
        0.9996857643127441
      ],
      "translation": [
        45.76731872558594,
        0.0,
        -17.23618507385254
      ]
    },
    {
      "children": [
        23
      ],
      "name": "Mushroom_3_2_014",
      "translation": [
        -7.105427357601002e-15,
        17.34946632385254,
        0.0
      ]
    },
    {
      "children": [
        24
      ],
      "name": "Mushroom_3_3_015",
      "translation": [
        -7.105427357601002e-15,
        16.0478458404541,
        0.0
      ]
    },
    {
      "children": [
        25
      ],
      "name": "Mushroom_3_4_016",
      "rotation": [
        0.0,
        0.0,
        3.469446951953614e-18,
        1.0
      ],
      "translation": [
        0.0,
        16.38727569580078,
        0.0
      ]
    },
    {
      "children": [
        26
      ],
      "name": "Mushroom_3_5_017",
      "translation": [
        -7.105427357601002e-15,
        18.627296447753906,
        0.0
      ]
    },
    {
      "name": "Mushroom_3_6_018",
      "translation": [
        0.0,
        16.663997650146484,
        0.0
      ]
    },
    {
      "name": "Mushroom_Checkpoint"
    }
  ],
  "samplers": [
    {
      "magFilter": 9729,
      "minFilter": 9987,
      "wrapS": 10497,
      "wrapT": 10497
    }
  ],
  "scene": 0,
  "scenes": [
    {
      "name": "Sketchfab_Scene",
      "nodes": [
        0
      ]
    }
  ],
  "skins": [
    {
      "inverseBindMatrices": 5,
      "joints": [
        6,
        8,
        9,
        10,
        11,
        12,
        13,
        14,
        15,
        16,
        17,
        18,
        19,
        20,
        21,
        22,
        23,
        24,
        25,
        26
      ],
      "skeleton": 6
    }
  ],
  "textures": [
    {
      "sampler": 0,
      "source": 0
    },
    {
      "sampler": 0,
      "source": 1
    },
    {
      "sampler": 0,
      "source": 2
    },
    {
      "sampler": 0,
      "source": 3
    }
  ]
}
